<svg width="24" height="24" viewBox="0 0 24 24" fill="none" xmlns="http://www.w3.org/2000/svg">
<path d="M9.73251 16.0177C9.91251 16.0177 10.0825 15.9477 10.2125 15.8077C10.4525 15.5377 10.4325 15.1277 10.1725 14.8877L7.28136 12.1677H15.35C16.6479 12.1677 17.7 13.2199 17.7 14.5177V16.2974C17.7 16.6564 17.991 16.9474 18.35 16.9474C18.709 16.9474 19 16.6564 19 16.2974V14.5177C19 12.5019 17.3658 10.8677 15.35 10.8677H7.27185L7.27194 10.8522L10.1325 8.43775C10.4025 8.19775 10.4125 7.78775 10.1725 7.51774C9.93249 7.25774 9.52249 7.23774 9.25249 7.47774L5.2325 10.9822C4.9225 11.2622 4.9225 11.7422 5.2325 12.0222L9.29251 15.8477C9.42251 15.9677 9.57251 16.0177 9.73251 16.0177Z" fill="#505050"/>
</svg>
