<svg width="20" height="20" viewBox="0 0 20 20" fill="none" xmlns="http://www.w3.org/2000/svg">
<g clip-path="url(#clip0_1689_1412)">
<path d="M10 20C15.5229 20 20 15.5229 20 10C20 4.47708 15.5229 0 10 0C4.47708 0 0 4.47708 0 10C0 15.5229 4.47708 20 10 20Z" fill="#505050"/>
<path d="M5.68749 5.4873V8.88897C6.2054 8.27147 6.82624 7.96064 7.54624 7.96064C7.91707 7.96064 8.24915 8.03147 8.54707 8.17189C8.84582 8.31147 9.06915 8.49064 9.21999 8.70814C9.37165 8.92772 9.47415 9.16814 9.52957 9.43314C9.58457 9.69689 9.61207 10.1073 9.61207 10.664V14.3011H8.0029V11.0252C8.0029 10.3752 7.97374 9.96356 7.91249 9.78856C7.8551 9.61713 7.74126 9.47023 7.58957 9.37189C7.43457 9.26731 7.24165 9.21564 7.00874 9.21564C6.74207 9.21564 6.5029 9.2823 6.29499 9.4148C6.08249 9.54814 5.92999 9.7473 5.83332 10.0136C5.73499 10.2802 5.68582 10.674 5.68749 11.1952L5.68582 14.3011H4.07874V5.4873H5.6879H5.68749ZM12.0237 5.4873V8.88897C12.5421 8.27147 13.1625 7.96064 13.8821 7.96064C14.2517 7.96064 14.5862 8.03147 14.8846 8.17189C15.1821 8.31147 15.4054 8.49064 15.5554 8.70814C15.7068 8.92626 15.8121 9.17295 15.865 9.43314C15.9204 9.69689 15.9479 10.1073 15.9479 10.664V14.3011H14.3404V11.0252C14.3404 10.3752 14.31 9.96356 14.2487 9.78856C14.1913 9.61689 14.0771 9.46992 13.925 9.37189C13.7717 9.26731 13.5771 9.21564 13.3442 9.21564C13.0779 9.21564 12.8387 9.2823 12.6304 9.4148C12.4208 9.54814 12.2675 9.7473 12.1696 10.0136C12.0729 10.2802 12.0237 10.674 12.0237 11.1952V14.3011H10.4167V5.4873H12.0237Z" fill="white"/>
</g>
<defs>
<clipPath id="clip0_1689_1412">
<rect width="20" height="20" fill="white"/>
</clipPath>
</defs>
</svg>
