<svg width="20" height="20" viewBox="0 0 20 20" fill="none" xmlns="http://www.w3.org/2000/svg">
<g clip-path="url(#clip0_1689_1415)">
<path d="M10 19.3086C15.1413 19.3086 19.3091 15.1408 19.3091 9.99952C19.3091 4.85825 15.1413 0.69043 10 0.69043C4.85874 0.69043 0.690918 4.85825 0.690918 9.99952C0.690918 15.1408 4.85874 19.3086 10 19.3086Z" fill="#505050"/>
<path d="M5.88728 6.58836C5.88728 6.58836 7.36365 8.25745 9.80728 8.53018C9.80728 8.53018 9.69092 7.13382 10.9309 6.35563C10.9309 6.35563 12.2109 5.50109 13.1818 6.74473C13.1818 6.74473 14.1127 6.552 14.4618 6.31927C14.4618 6.31927 14.1891 6.84654 13.7236 7.30109L14.7709 7.09382L13.8 8.14109C13.8 8.14109 14.1891 11.672 10.3273 13.5338C10.3273 13.5338 7.32001 14.6211 5.22546 13.1847C5.22546 13.1847 7.78546 12.7956 8.05819 12.2138C8.05819 12.2138 6.69819 12.0575 6.3491 10.8938L7.08728 10.8538C7.08728 10.8538 5.80728 10.7375 5.65092 8.912L6.50546 9.02836C6.5091 9.032 5.1491 8.64654 5.88728 6.58836Z" fill="white"/>
</g>
<defs>
<clipPath id="clip0_1689_1415">
<rect width="20" height="20" fill="white"/>
</clipPath>
</defs>
</svg>
